<svg xmlns="http://www.w3.org/2000/svg" viewBox="0 0 100 100">
  <g fill="none" stroke="#000" stroke-width="4.5" stroke-linecap="round" stroke-linejoin="round">
    <circle cx="24" cy="62" r="16.5"/>
    <circle cx="76" cy="62" r="16.5"/>
    <path d="M24 62 L50 62 L40 34 M24 62 L40 34 M40 34 L66 36 M50 62 L66 36 L76 62"/>
    <path d="M40 34 L38 28 M32 27 L44 27"/>
    <path d="M66 36 L64 27 M64 27 L73 24"/>
  </g>
  <circle cx="24" cy="62" r="3" fill="#000"/>
  <circle cx="76" cy="62" r="3" fill="#000"/>
  <circle cx="50" cy="62" r="4.5" fill="#000"/>
  <path d="M54 39 L47 50 L51.5 50 L48.5 58 L58 45 L53 45 L57 39 Z" fill="#000" stroke="none"/>
</svg>
